<svg xmlns="http://www.w3.org/2000/svg" viewBox="0 0 864 864"><path d="M783.782 432.088c0-4.791-.176-9.543-.362-14.288l70.312-15.946c-.82-11.59-1.975-23.088-3.706-34.401l-72.237.099c-1.745-9.434-3.838-18.74-6.319-27.896l65.082-31.23c-3.374-11.087-7.251-21.945-11.488-32.626l-70.267 16.14a351 351 0 0 0-12.427-25.78l56.408-44.857c-5.759-10.027-11.868-19.82-18.396-29.31l-64.955 31.391c-5.645-7.69-11.624-15.111-17.863-22.31l45.077-56.365a427 427 0 0 0-24.47-24.47l-56.369 45.077c-7.195-6.238-14.616-12.218-22.31-17.866l31.395-64.952c-9.492-6.53-19.283-12.64-29.313-18.396l-44.85 56.408a353 353 0 0 0-25.784-12.429l16.139-70.265c-10.68-4.237-21.54-8.116-32.625-11.49l-31.233 65.082a350 350 0 0 0-27.893-6.318l.1-72.238c-11.317-1.73-22.811-2.886-34.402-3.704L445.08 79.46c-4.745-.19-9.497-.362-14.288-.362-4.794 0-9.543.173-14.289.362L400.557 9.148c-11.59.818-23.09 1.973-34.403 3.703l.101 72.239a351 351 0 0 0-27.898 6.318l-31.23-65.082c-11.087 3.374-21.942 7.252-32.625 11.49l16.141 70.264a352 352 0 0 0-25.783 12.43l-44.857-56.408c-10.023 5.756-19.817 11.864-29.306 18.394l31.388 64.954c-7.687 5.648-15.109 11.627-22.31 17.866l-56.362-45.077a427 427 0 0 0-24.47 24.47l45.077 56.366c-6.24 7.198-12.218 14.62-17.87 22.31l-64.949-31.392c-6.533 9.49-12.642 19.283-18.395 29.31l56.408 44.857a352 352 0 0 0-12.433 25.78L36.52 275.8c-4.237 10.681-8.118 21.539-11.492 32.626l65.083 31.23a350 350 0 0 0-6.319 27.896l-72.24-.1c-1.729 11.314-2.885 22.811-3.7 34.402L78.164 417.8c-.193 4.745-.362 9.497-.362 14.288 0 4.794.17 9.544.362 14.29L7.852 462.323c.815 11.59 1.971 23.087 3.7 34.402l72.24-.1a350 350 0 0 0 6.319 27.897l-65.083 31.23c3.374 11.085 7.252 21.943 11.492 32.626l70.26-16.141a352 352 0 0 0 12.434 25.781l-56.408 44.856c5.753 10.026 11.862 19.82 18.393 29.31l64.952-31.392c5.65 7.69 11.63 15.112 17.869 22.31l-45.078 56.365a427 427 0 0 0 24.47 24.47l56.363-45.077c7.201 6.24 14.623 12.22 22.31 17.866l-31.388 64.955c9.489 6.531 19.283 12.637 29.306 18.393l44.857-56.408a350 350 0 0 0 25.783 12.43l-16.14 70.264c10.682 4.24 21.537 8.117 32.624 11.492l31.23-65.083a352 352 0 0 0 27.898 6.319l-.101 72.238c11.313 1.73 22.813 2.885 34.403 3.702l15.946-70.31c4.746.19 9.495.36 14.289.36 4.79 0 9.543-.17 14.288-.36l15.946 70.31c11.59-.817 23.085-1.973 34.401-3.702l-.099-72.238a351 351 0 0 0 27.893-6.319l31.233 65.083c11.084-3.375 21.945-7.255 32.625-11.492l-16.139-70.263a353 353 0 0 0 25.783-12.43l44.851 56.407c10.03-5.756 19.821-11.865 29.313-18.394l-31.394-64.954c7.693-5.648 15.114-11.627 22.31-17.866l56.368 45.078a427 427 0 0 0 24.47-24.47l-45.077-56.366c6.239-7.198 12.218-14.62 17.863-22.31l64.955 31.391c6.53-9.489 12.637-19.283 18.396-29.31l-56.408-44.855a351 351 0 0 0 12.427-25.781l70.267 16.14c4.237-10.682 8.114-21.54 11.488-32.625L771.47 524.52c2.48-9.155 4.574-18.46 6.319-27.895l72.237.1c1.731-11.315 2.885-22.812 3.706-34.402l-70.312-15.945c.186-4.746.362-9.496.362-14.29m-352.99 273.67c-84.437 0-160.043-38.456-210.285-98.753l141.175-81.51c19.354 14.359 43.217 22.964 69.11 22.964s49.755-8.605 69.11-22.963l141.175 81.509c-50.242 60.297-125.849 98.753-210.285 98.753M687.537 526.82l-141.183-81.514c.495-4.344.806-8.74.806-13.215 0-47.7-28.869-88.741-70.03-106.69V162.423C606.026 184.511 704.46 296.988 704.46 432.091c0 33.286-5.99 65.195-16.922 94.729M430.792 385.226c25.84 0 46.86 21.026 46.86 46.865s-21.02 46.86-46.86 46.86-46.86-21.02-46.86-46.86 21.02-46.865 46.86-46.865m-46.34-222.803v162.978c-41.16 17.949-70.028 58.99-70.028 106.69 0 4.474.31 8.871.806 13.215L174.046 526.82c-10.931-29.534-16.922-61.443-16.922-94.729 0-135.103 98.434-247.58 227.329-269.668" style="fill:#ec7d00"/></svg>