<svg xmlns="http://www.w3.org/2000/svg" viewBox="0 0 864 864"><path d="M783.963 432.26c0-4.776-.172-9.51-.361-14.24l70.063-15.888c-.814-11.55-1.964-23.006-3.689-34.28l-71.983.1a350 350 0 0 0-6.296-27.798l64.851-31.12c-3.362-11.048-7.227-21.868-11.449-32.51l-70.015 16.082a351 351 0 0 0-12.386-25.69l56.207-44.696c-5.734-9.992-11.822-19.75-18.329-29.207l-64.723 31.28c-5.629-7.662-11.586-15.058-17.803-22.23l44.92-56.165a426 426 0 0 0-24.386-24.386l-56.166 44.92c-7.172-6.217-14.568-12.177-22.23-17.805l31.28-64.722c-9.456-6.507-19.215-12.594-29.207-18.329l-44.695 56.208a350 350 0 0 0-25.692-12.386l16.084-70.015c-10.643-4.223-21.465-8.088-32.51-11.45l-31.121 64.851a350 350 0 0 0-27.798-6.296l.1-71.982c-11.274-1.724-22.73-2.876-34.28-3.691l-15.89 70.063c-4.728-.19-9.462-.36-14.238-.36s-9.509.17-14.237.36l-15.89-70.063c-11.55.815-23.007 1.966-34.28 3.69l.099 71.983a350 350 0 0 0-27.797 6.296l-31.12-64.852c-11.047 3.363-21.867 7.226-32.51 11.45l16.082 70.016a350 350 0 0 0-25.69 12.386l-44.696-56.208c-9.992 5.735-19.75 11.82-29.207 18.328l31.28 64.723c-7.662 5.628-15.058 11.588-22.23 17.804l-56.166-44.919a425 425 0 0 0-24.384 24.386l44.918 56.164c-6.217 7.173-12.175 14.57-17.803 22.231l-64.722-31.28c-6.508 9.457-12.596 19.214-18.33 29.206l56.207 44.698a351 351 0 0 0-12.386 25.69l-70.015-16.083c-4.222 10.642-8.087 21.463-11.45 32.51l64.852 31.12a349 349 0 0 0-6.296 27.797l-71.983-.1c-1.723 11.275-2.875 22.732-3.689 34.281l70.063 15.889c-.19 4.729-.361 9.463-.361 14.239s.172 9.51.361 14.239l-70.063 15.889c.814 11.549 1.966 23.004 3.689 34.28l71.983-.101a349 349 0 0 0 6.296 27.798l-64.851 31.12c3.362 11.046 7.225 21.867 11.449 32.51l70.015-16.083a351 351 0 0 0 12.386 25.69L65.537 642.3c5.735 9.99 11.822 19.749 18.329 29.206l64.724-31.28c5.628 7.662 11.586 15.057 17.803 22.23l-44.918 56.165a425 425 0 0 0 24.384 24.385l56.166-44.918c7.172 6.217 14.568 12.176 22.23 17.803l-31.28 64.724c9.457 6.508 19.215 12.593 29.207 18.328l44.697-56.208a350 350 0 0 0 25.69 12.387l-16.083 70.015c10.643 4.223 21.463 8.087 32.51 11.45l31.12-64.853a350 350 0 0 0 27.797 6.297l-.098 71.983c11.272 1.724 22.729 2.875 34.279 3.69l15.89-70.063c4.728.19 9.462.36 14.237.36s9.51-.17 14.238-.36l15.89 70.062c11.55-.814 23.006-1.966 34.28-3.69l-.1-71.982a350 350 0 0 0 27.798-6.297l31.12 64.853c11.046-3.363 21.868-7.228 32.511-11.45l-16.084-70.016a351 351 0 0 0 25.692-12.386l44.695 56.208c9.992-5.735 19.751-11.822 29.207-18.328l-31.28-64.724c7.662-5.628 15.058-11.587 22.23-17.804l56.166 44.919a426 426 0 0 0 24.385-24.385l-44.919-56.166c6.217-7.172 12.174-14.568 17.803-22.23l64.725 31.281c6.506-9.457 12.593-19.217 18.327-29.207l-56.207-44.697a351 351 0 0 0 12.386-25.69l70.015 16.083c4.223-10.643 8.087-21.463 11.45-32.51l-64.852-31.12a350 350 0 0 0 6.296-27.798l71.983.1c1.725-11.275 2.875-22.73 3.689-34.28L783.602 446.5c.19-4.73.361-9.463.361-14.239M443.911 307.751c44.708 4.277 82.316 32.818 99.534 72.304l-73.04 23.731c-6.067-9.345-15.459-16.303-26.494-19.243zm33.707 118.276 73.042-23.732a121.6 121.6 0 0 1 2.866 26.19c0 36.138-15.82 68.566-40.89 90.788l-45.116-62.095c6.382-7.837 10.223-17.822 10.223-28.693 0-.83-.08-1.64-.125-2.458m-23.258 2.458c0 12.207-9.933 22.139-22.14 22.139s-22.137-9.932-22.137-22.14 9.93-22.136 22.137-22.136 22.14 9.93 22.14 22.137m-33.832-120.733v76.79c-11.032 2.94-20.424 9.899-26.49 19.243l-73.04-23.731c17.218-39.485 54.824-68.024 99.53-72.302m-23.606 149.424-45.115 62.097c-25.07-22.222-40.891-54.65-40.891-90.787 0-8.997 1.008-17.752 2.866-26.19l73.042 23.732c-.045.82-.124 1.628-.124 2.457 0 10.871 3.84 20.855 10.222 28.691m13.585-318.46V276.09c-3.276.445-6.536.949-9.752 1.604l-10.242-24.098c-5.234 1.224-10.38 2.703-15.447 4.368l3.765 25.879a158 158 0 0 0-16.978 7.268l-16.092-20.575a184 184 0 0 0-13.825 8.187l10.332 24.013a159 159 0 0 0-14.516 11.404l-20.885-15.723a185 185 0 0 0-11.227 11.494l16.182 20.506a157 157 0 0 0-11.08 14.775l-24.252-9.784c-2.819 4.529-5.473 9.177-7.9 13.973l20.988 15.656c-2.608 5.541-4.942 11.246-6.907 17.143l-25.89-3.165a183 183 0 0 0-3.969 15.57l24.266 9.666c-.372 2.077-.659 4.189-.957 6.294H138.678C149.28 265.27 265.23 149.318 410.507 138.716m0 587.087C265.23 715.2 149.28 599.249 138.677 453.973h137.47c.442 3.247.943 6.48 1.592 9.669l-24.097 10.243c1.222 5.234 2.702 10.379 4.368 15.447l25.879-3.765a158 158 0 0 0 7.268 16.979l-20.576 16.091a184 184 0 0 0 8.187 13.824l24.014-10.33a159 159 0 0 0 11.403 14.515l-15.722 20.885c3.659 3.907 7.5 7.645 11.494 11.226l20.505-16.181a158 158 0 0 0 14.776 11.08l-9.785 24.251c4.53 2.82 9.178 5.474 13.974 7.902l15.656-20.988c5.54 2.607 11.245 4.942 17.143 6.907l-3.166 25.89a183 183 0 0 0 15.57 3.967l9.666-24.265c2.05.368 4.133.649 6.21.945zm21.714-176.012c-22.454 0-43.467-6.124-61.504-16.759l45.132-62.12c5.089 1.97 10.595 3.095 16.37 3.095s11.285-1.124 16.373-3.095l45.133 62.12c-18.036 10.635-39.05 16.759-61.504 16.759m21.712 176.012v-137.54c3.277-.445 6.537-.95 9.754-1.603l10.243 24.097c5.234-1.224 10.38-2.702 15.447-4.37l-3.766-25.877a158 158 0 0 0 16.978-7.268l16.093 20.575a184 184 0 0 0 13.824-8.187l-10.332-24.013a159 159 0 0 0 14.516-11.404l20.885 15.722c3.908-3.658 7.645-7.5 11.227-11.494l-16.182-20.505A157 157 0 0 0 563.7 519.16l24.251 9.784c2.82-4.528 5.474-9.178 7.901-13.975l-20.988-15.655c2.607-5.541 4.942-11.245 6.907-17.143l25.89 3.167a183 183 0 0 0 3.968-15.57l-24.265-9.666c.362-2.024.64-4.08.931-6.13h137.47c-10.603 145.277-126.555 261.23-271.833 271.83m134.385-315.257c-.448-3.304-.955-6.592-1.615-9.834l24.098-10.244c-1.223-5.234-2.702-10.379-4.369-15.446l-25.878 3.765a158 158 0 0 0-7.269-16.978l20.576-16.092a185 185 0 0 0-8.186-13.826l-24.014 10.333a159 159 0 0 0-11.403-14.515l15.722-20.886a184 184 0 0 0-11.495-11.227l-20.504 16.182a157 157 0 0 0-14.776-11.08l9.785-24.253c-4.53-2.817-9.178-5.473-13.975-7.9l-15.655 20.988c-5.54-2.607-11.246-4.942-17.144-6.907l3.166-25.889a183 183 0 0 0-15.57-3.97l-9.665 24.266c-2.051-.367-4.136-.649-6.214-.945V138.715c145.278 10.602 261.23 126.553 271.832 271.831z" style="fill:#013846"/></svg>