<svg xmlns="http://www.w3.org/2000/svg" viewBox="0 0 864 864"><path d="M857.991 453.841c.362-7.205.548-14.456.548-21.754 0-7.294-.186-14.547-.548-21.752l-81.12-13.875c-1.698-16.636-4.616-32.904-8.585-48.759l71.534-40.811c-4.277-13.936-9.217-27.58-14.84-40.866l-81.048 14.72a346 346 0 0 0-24.783-42.866l53.203-62.748c-8.769-11.589-18.145-22.683-28.028-33.304l-71.075 41.521a348 348 0 0 0-37.852-31.8l28.547-77.196a426 426 0 0 0-37.68-21.792l-52.573 63.31a344 344 0 0 0-46.494-16.919l.421-82.293a424 424 0 0 0-42.876-7.509l-27.758 77.498c-8.175-.576-16.395-.974-24.713-.974-8.32 0-16.541.398-24.713.974L379.8 9.148a424 424 0 0 0-42.876 7.508l.42 82.294a344 344 0 0 0-46.496 16.919l-52.573-63.31a426 426 0 0 0-37.677 21.79l28.546 77.199a348 348 0 0 0-37.854 31.8l-71.075-41.522c-9.883 10.62-19.257 21.715-28.025 33.304l53.2 62.748a346 346 0 0 0-24.78 42.866l-81.048-14.72c-5.626 13.286-10.563 26.93-14.84 40.865L96.256 347.7c-3.969 15.855-6.887 32.123-8.588 48.759L6.55 410.336a431 431 0 0 0 0 43.505l81.117 13.875c1.7 16.635 4.62 32.905 8.588 48.758l-71.534 40.814c4.277 13.935 9.214 27.578 14.84 40.865l81.047-14.719a346 346 0 0 0 24.78 42.866l-53.2 62.747c8.77 11.588 18.143 22.684 28.026 33.304l71.075-41.522a348 348 0 0 0 37.854 31.798l-28.546 77.2a425 425 0 0 0 37.677 21.79l52.573-63.311a344 344 0 0 0 46.497 16.922l-.421 82.291a424 424 0 0 0 42.876 7.51l27.758-77.499c8.172.576 16.392.975 24.713.975 8.318 0 16.54-.397 24.713-.975l27.758 77.498a425 425 0 0 0 42.876-7.509l-.421-82.291a343.4 343.4 0 0 0 46.494-16.922l52.573 63.31a425 425 0 0 0 37.68-21.789l-28.547-77.2a348 348 0 0 0 37.852-31.797l71.075 41.521c9.883-10.62 19.26-21.716 28.028-33.304L719.149 626.3a346 346 0 0 0 24.783-42.866l81.047 14.719c5.624-13.287 10.564-26.93 14.84-40.865l-71.533-40.814c3.969-15.853 6.887-32.123 8.585-48.758zM685.806 314.83l-163.107 52.997c-13.911-19.521-33.9-34.423-57.26-41.75V154.774c98.03 11.607 180.468 73.936 220.367 160.056m-253.54 72.527c24.664 0 44.728 20.069 44.728 44.733s-20.064 44.728-44.729 44.728-44.728-20.064-44.728-44.728 20.064-44.733 44.728-44.733m-33.174-232.582v171.302c-23.36 7.327-43.349 22.229-57.26 41.75L178.733 314.83c39.899-86.117 122.33-148.445 220.359-160.055M152.93 432.087c0-18.537 1.846-36.637 5.294-54.166l163.025 52.975c-.002.402-.059.79-.059 1.194 0 24.786 8.261 47.622 22.035 66.123l-100.79 138.729c-55.03-51.019-89.505-123.894-89.505-204.855m279.34 279.341c-49.463 0-95.889-12.908-136.187-35.46l100.763-138.693c11.141 3.762 23.025 5.89 35.42 5.89s24.28-2.13 35.422-5.891l100.77 138.694c-40.3 22.553-86.724 35.46-136.187 35.46m189.837-74.486-100.8-138.731c13.776-18.501 22.034-41.336 22.034-66.12 0-.403-.057-.793-.06-1.194l163.034-52.976a280.4 280.4 0 0 1 5.297 54.166c0 80.96-34.478 153.836-89.505 204.855" style="fill:#013846"/></svg>