<svg xmlns="http://www.w3.org/2000/svg" viewBox="0 0 864 864"><path d="M856.45 454.052c.361-7.198.55-14.441.55-21.73s-.189-14.533-.55-21.73l-70.824-12.115c-1.802-19.003-5.061-37.586-9.741-55.61l62.413-35.61c-4.27-13.919-9.204-27.549-14.824-40.82l-70.816 12.86c-8.15-17.053-17.646-33.334-28.299-48.764l46.544-54.893c-8.76-11.577-18.122-22.659-27.996-33.269l-62.129 36.296c-13.38-13.168-27.817-25.248-43.13-36.187l24.963-67.512a425 425 0 0 0-37.635-21.767l-45.936 55.316a353.3 353.3 0 0 0-52.975-19.339l.367-71.84a424 424 0 0 0-42.83-7.501L459.38 77.46c-9.318-.734-18.704-1.22-28.207-1.22-9.494 0-18.87.485-28.18 1.218l-24.22-67.622a424 424 0 0 0-42.83 7.5l.367 71.837a353 353 0 0 0-52.978 19.34L237.4 53.2a425 425 0 0 0-37.637 21.766l24.964 67.51c-15.315 10.939-29.752 23.02-43.134 36.188l-62.126-36.294c-9.873 10.61-19.236 21.692-27.995 33.269l46.542 54.893c-10.653 15.43-20.148 31.711-28.299 48.764L38.9 266.437c-5.62 13.271-10.552 26.9-14.823 40.82l62.413 35.61c-4.68 18.023-7.94 36.607-9.741 55.612L5.925 410.593a433 433 0 0 0-.55 21.729c0 7.289.188 14.532.55 21.73l70.825 12.114c1.802 19.004 5.062 37.587 9.743 55.61l-62.416 35.611c4.271 13.92 9.203 27.55 14.823 40.822l70.82-12.862c8.151 17.05 17.645 33.332 28.297 48.76l-46.545 54.898c8.759 11.575 18.122 22.659 27.995 33.268l62.131-36.297c13.381 13.168 27.817 25.249 43.13 36.189l-24.965 67.512a426 426 0 0 0 37.637 21.766l45.933-55.314a353 353 0 0 0 52.977 19.341l-.367 71.838a424 424 0 0 0 42.83 7.5l24.221-67.624c9.309.734 18.685 1.22 28.18 1.22 9.502 0 18.888-.487 28.206-1.221l24.222 67.625a424 424 0 0 0 42.83-7.5l-.367-71.843a353 353 0 0 0 52.973-19.34l45.938 55.318a426 426 0 0 0 37.635-21.767l-24.966-67.516c15.313-10.938 29.748-23.018 43.129-36.185l62.131 36.298c9.873-10.61 19.238-21.692 27.998-33.268l-46.547-54.899c10.652-15.427 20.147-31.709 28.298-48.759l70.82 12.862c5.62-13.273 10.553-26.902 14.824-40.823l-62.418-35.61c4.682-18.024 7.942-36.606 9.744-55.61zm-360.627-21.73c0 35.697-28.939 64.635-64.634 64.635-35.698 0-64.637-28.938-64.637-64.634 0-35.698 28.94-64.635 64.637-64.635 35.695 0 64.634 28.937 64.634 64.635m-33.49-209.972v-86.03c107.583 11.243 198.227 80.04 240.666 174.937l-81.74 26.559c-78.444 25.489-158.926-32.985-158.926-115.466m-62.292 0c0 82.48-80.481 140.953-158.926 115.466l-81.74-26.559c42.44-94.902 133.088-163.704 240.666-174.939zM221.868 397.057c78.445 25.488 109.185 120.1 60.704 186.828l-50.476 69.474c-60.467-54.517-98.554-133.407-98.554-221.045 0-21.203 2.268-41.881 6.505-61.842zM332.967 620.5c48.483-66.728 147.963-66.728 196.444 0l50.482 69.485c-43.79 25.371-94.566 39.976-148.72 39.976-54.14 0-104.907-14.604-148.693-39.972zm246.839-36.614c-48.481-66.728-17.741-161.34 60.704-186.828l81.819-26.586a297.6 297.6 0 0 1 6.504 61.843c0 87.635-38.085 166.525-98.554 221.041z" style="fill:#ec7d00"/></svg>