<svg xmlns="http://www.w3.org/2000/svg" viewBox="0 0 864 864"><path d="M855.94 454.046c.36-7.195.549-14.437.549-21.723 0-7.287-.188-14.53-.55-21.725l-78.113-13.36a347.6 347.6 0 0 0-8.986-50.606l68.952-39.34c-4.27-13.916-9.201-27.542-14.82-40.811L744.67 280.7a348.4 348.4 0 0 0-25.734-44.276l51.48-60.716c-8.758-11.572-18.118-22.652-27.989-33.259l-68.822 40.206a351 351 0 0 0-39.12-32.769l27.668-74.821a425 425 0 0 0-37.626-21.762l-50.992 61.406a346 346 0 0 0-47.933-17.41l.41-79.85a424 424 0 0 0-42.82-7.499l-26.946 75.232a354 354 0 0 0-25.454-.93c-8.561 0-17.047.323-25.454.93L378.392 9.95a424 424 0 0 0-42.819 7.498l.409 79.85a346 346 0 0 0-47.934 17.41l-50.991-61.405a425 425 0 0 0-37.626 21.76l27.668 74.823a351 351 0 0 0-39.12 32.77l-68.823-40.207c-9.87 10.607-19.23 21.687-27.987 33.26l51.479 60.715a348.5 348.5 0 0 0-25.734 44.277L38.612 266.48c-5.618 13.269-10.55 26.894-14.82 40.81l68.952 39.34a347.6 347.6 0 0 0-8.986 50.606L5.645 410.6a433 433 0 0 0-.55 21.724c0 7.286.189 14.527.55 21.723l77.965 13.336a348 348 0 0 0 8.796 50.824l-68.614 39.147c4.27 13.917 9.202 27.542 14.82 40.81l77.589-14.09a348.4 348.4 0 0 0 25.844 44.858l-50.876 60.004c8.756 11.572 18.117 22.653 27.987 33.259l67.81-39.614a350.6 350.6 0 0 0 39.672 33.422l-27.207 73.577a425 425 0 0 0 37.626 21.761l50.03-60.248a346 346 0 0 0 48.887 17.832l-.4 78.27a424 424 0 0 0 42.818 7.5l26.392-73.686c8.587.633 17.259.965 26.008.965s17.42-.332 26.008-.965l26.393 73.685a424 424 0 0 0 42.818-7.499l-.4-78.27a346 346 0 0 0 48.885-17.832l50.031 60.248a425 425 0 0 0 37.626-21.761l-27.207-73.577a351 351 0 0 0 39.672-33.421l67.807 39.613c9.87-10.606 19.233-21.686 27.99-33.259l-50.876-60.004a348.4 348.4 0 0 0 25.844-44.859l77.589 14.091c5.619-13.268 10.55-26.894 14.82-40.81l-68.613-39.147a348 348 0 0 0 8.795-50.824zM606.4 537.36c-57.574 0-104.249-46.673-104.249-104.247s46.675-104.248 104.25-104.248 104.246 46.673 104.246 104.248S663.974 537.36 606.4 537.36m59.062 76.168c0 29.916-24.34 54.255-54.254 54.255s-54.254-24.339-54.254-54.255 24.34-54.254 54.254-54.254 54.254 24.338 54.254 54.254M255.183 537.36c-57.574 0-104.246-46.673-104.246-104.247s46.672-104.248 104.246-104.248 104.25 46.673 104.25 104.248-46.675 104.247-104.25 104.247m49.446 76.168c0 29.914-24.337 54.254-54.254 54.254s-54.255-24.34-54.255-54.254 24.34-54.254 54.255-54.254 54.254 24.34 54.254 54.254m-108.507-360.83c0-29.917 24.34-54.256 54.253-54.256s54.254 24.34 54.254 54.255-24.34 54.254-54.254 54.254-54.253-24.338-54.253-54.254m234.67 109.055c-57.575 0-104.249-46.674-104.249-104.248s46.674-104.248 104.249-104.248S535.04 199.93 535.04 257.505c0 57.574-46.674 104.248-104.248 104.248m43.29 71.36c0 23.907-19.382 43.29-43.29 43.29s-43.29-19.383-43.29-43.29 19.382-43.29 43.29-43.29 43.29 19.382 43.29 43.29m-43.29 71.36c57.574 0 104.248 46.673 104.248 104.247 0 57.575-46.674 104.249-104.248 104.249S326.543 666.295 326.543 608.72s46.674-104.248 104.249-104.248m126.162-251.776c0-29.914 24.338-54.253 54.254-54.253s54.256 24.339 54.256 54.253-24.34 54.254-54.256 54.254-54.254-24.34-54.254-54.254" style="fill:#013846"/></svg>