<?xml version="1.0" encoding="UTF-8" standalone="no"?>
<!-- Created with Inkscape (http://www.inkscape.org/) -->

<svg
   width="210mm"
   height="297mm"
   viewBox="0 0 210 297"
   version="1.1"
   id="svg1"
   xmlns="http://www.w3.org/2000/svg"
   xmlns:svg="http://www.w3.org/2000/svg">
  <defs
     id="defs1">
    <linearGradient
       id="swatch54">
      <stop
         style="stop-color:#013846;stop-opacity:1;"
         offset="0"
         id="stop54" />
    </linearGradient>
    <filter
       style="color-interpolation-filters:sRGB"
       id="filter55"
       x="-0.051566656"
       y="-0.19383048"
       width="1.1246194"
       height="1.4684237">
      <feOffset
         dy="3"
         dx="3"
         id="feOffset54" />
      <feGaussianBlur
         stdDeviation="3"
         result="blur"
         id="feGaussianBlur54" />
      <feFlood
         flood-color="rgb(0,0,0)"
         flood-opacity="1"
         result="flood"
         id="feFlood54" />
      <feComposite
         in="flood"
         in2="SourceGraphic"
         operator="in"
         result="composite"
         id="feComposite55" />
      <feBlend
         in="blur"
         in2="composite"
         mode="normal"
         id="feBlend55" />
    </filter>
  </defs>
  <g
     id="layer1">
    <path
       style="font-style:italic;font-size:42.6667px;font-family:'Brush Script MT';-inkscape-font-specification:'Brush Script MT Italic';white-space:pre;fill:#013846;filter:url(#filter55)"
       d="m 240.93686,355.861 -4.47917,2.35417 q -1.04166,0.52084 -1.39583,0.52084 -0.64583,0 -0.9375,-0.39584 -0.3125,-0.41666 -0.3125,-1.27083 0,-0.97917 0.41667,-2.25 0.41666,-1.29167 0.95833,-1.89584 0.5625,-0.625 2.625,-1.70833 2.08334,-1.10417 5.00001,-2.20834 2.91666,-1.10416 6.08333,-1.83333 3.16667,-0.72917 5.79167,-0.72917 1.83334,0 2.70834,0.58333 0.875,0.58334 0.875,3.08334 0,1.35417 -0.9375,3.02084 -0.91667,1.64583 -2.22917,3.20833 -1.29167,1.5625 -4.8125,5.54167 1.875,-0.29166 2.75,-0.375 0.875,-0.0833 3.27084,-0.35416 2.77083,-4.00001 4.47917,-6.37501 1.70833,-2.39583 2.89583,-3.95834 1.1875,-1.58333 1.41667,-1.8125 0.41667,-0.47916 0.6875,-0.35416 0.29167,0.10416 0.29167,0.85416 0,0.85417 -0.1875,1.39584 -0.16667,0.54166 -0.54167,1.08333 -0.375,0.52084 -0.39583,0.5625 -0.54167,0.89584 -1.56251,2.35417 -1.02083,1.4375 -2,2.85417 -0.97916,1.41667 -2.22917,3.35417 2.33334,0.0833 4.60417,0.60417 l -3.75,5.08333 q -1.54167,-0.20833 -4.10417,-0.20833 -0.625,1.25 -0.97917,1.95833 -0.33333,0.70834 -0.58333,1.35417 -0.22917,0.625 -0.22917,1.16667 0,0.33333 0.1875,0.89583 0.20834,0.54167 0.20834,0.625 0,0.41667 -0.625,0.89584 -0.60417,0.45833 -1.4375,0.8125 -0.8125,0.35417 -1.27084,0.35417 -0.77083,0 -0.77083,-1.16667 0,-2.41667 2.47917,-6.72917 -3.29167,0.27083 -7.56251,0.97916 -1.22917,1.625 -2.22917,3.08334 -1,1.45833 -1.64583,2.45833 -0.625,1.00001 -0.9375,1.33334 -0.29167,0.33333 -0.64584,0.33333 -0.60416,0 -1.02083,-0.52083 -0.1875,-0.20833 -0.25,-0.41667 -0.0417,-0.20833 -0.0417,-0.45833 0,-0.25 0,-0.4375 0,-0.25 0.27084,-0.72917 0.27083,-0.47917 1.29166,-1.89583 1.02084,-1.43751 1.5,-2.16667 -0.54166,0.0625 -1.39583,0.0625 -1.08333,0 -1.77083,-0.39584 -0.66667,-0.39583 -0.66667,-0.97916 0,-0.66667 0.35417,-1.41667 0.35416,-0.77084 0.91666,-1.27084 0.5625,-0.52083 1.125,-0.52083 0.375,0 0.89584,0.22917 l 5.375,-1.33334 q 4.5,-4.875 6.70834,-7.70834 2.20833,-2.83333 2.20833,-3.64583 0,-0.45834 -0.25,-0.75 -0.25,-0.3125 -0.70833,-0.47917 -0.4375,-0.16667 -1.02083,-0.16667 -0.6875,0 -2.18751,0.375 -1.47916,0.375 -3.54166,1.10417 -2.06251,0.72917 -5.14584,2.02084 -2.29167,0.9375 -2.29167,1.1875 0,0.29166 0.3125,0.375 0.3125,0.0833 0.79167,0.125 0.5,0.0417 0.5,0.14583 0,0.0833 -0.25,0.22917 -0.22917,0.14583 -0.64584,0.35416 z m 32.93753,10.31251 q -3.02084,4.00001 -4.60417,5.68751 -1.5625,1.6875 -2.5625,1.6875 -0.79167,0 -1.45834,-0.64584 -0.66667,-0.66666 -1.04167,-1.77083 -0.35416,-1.125 -0.35416,-2.39584 0,-0.83333 0.14583,-1.5 0.16667,-0.66666 0.60417,-1.45833 0.4375,-0.8125 1.14583,-1.75 0.72917,-0.9375 1.77084,-2.125 0.625,-0.72917 1.04166,-1.22917 0.4375,-0.5 0.83334,-0.66667 0.41666,-0.1875 1.33333,-0.1875 0.66667,0 1.27084,0.1875 0.60416,0.16667 0.60416,0.35417 0,0.375 -0.625,1.35417 -0.60416,0.97916 -1.97917,2.39583 -1.35416,1.39584 -3.14583,2.75 -0.39584,1.22917 -0.39584,1.875 0,0.89584 0.68751,0.89584 0.25,0 0.83333,-0.41667 0.58333,-0.4375 1.95833,-1.64583 1.39584,-1.22917 2.50001,-2.16667 0.8125,-0.70834 1.875,-2.10417 1.08333,-1.41667 1.75,-2.125 1.54167,-1.625 2.10417,-2.10417 0.5625,-0.5 1.08333,-0.5 0.5,0 0.66667,0.3125 0.1875,0.3125 0.1875,1.27083 0,0.4375 -0.0833,0.70834 -0.0833,0.27083 -0.35416,0.70833 -0.25,0.41667 -1.04167,1.5625 -0.79167,1.14584 -1.875,2.70834 -0.58333,0.83333 -1.02083,1.83333 -0.43751,0.97917 -0.43751,1.47917 0,1.08334 0.85417,1.08334 0.70834,0 1.64584,-0.58334 0.9375,-0.58333 2.875,-2.10417 v 1.39584 q -2.4375,2.25 -3.60417,3.27083 -1.16667,1.02084 -2.02084,1.54167 -0.85416,0.52084 -1.625,0.52084 -1.75,0 -1.75,-2.08334 0,-0.79167 0.52084,-2.125 0.52083,-1.35417 1.6875,-3.89584 z m 16.12501,4.27084 q 2.875,-2.54167 4.9375,-4.41667 2.0625,-1.89584 3.22917,-2.97917 1.1875,-1.08333 2.08334,-1.83333 0.89583,-0.75001 1.14583,-0.75001 0.47917,-0.0208 0.91667,1.00001 0.4375,1 0.4375,1.60416 0,0.39584 -1.33334,1.875 -1.3125,1.45834 -1.97916,2.33334 -0.64584,0.875 -0.64584,1.83333 0,0.56251 0.375,0.91667 0.375,0.33334 0.89584,0.33334 0.60416,0 1.4375,-0.625 0.85417,-0.62501 2.66667,-2.22917 v 1.47916 q -1.8125,1.70834 -3.29167,2.95834 -1.47917,1.22917 -2.58334,1.85417 -1.08333,0.60417 -1.8125,0.60417 -0.64583,0 -1.08333,-0.47917 -0.4375,-0.5 -0.4375,-1.22917 0,-0.70833 0.25,-1.4375 0.25,-0.72917 0.77083,-1.72917 0.52083,-1 1.375,-2.39583 0.85417,-1.41667 1.5625,-2.58334 -2.125,1.72917 -3.77083,3.33334 -1.64584,1.60416 -2.68751,2.8125 -1.04166,1.1875 -1.64583,1.875 -1.16667,1.29167 -2.16667,1.29167 -1.08333,0 -1.08333,-1.54167 0,-0.625 0.8125,-2.22917 0.8125,-1.625 2.3125,-4.125 0.125,-0.16667 0.125,-0.52083 0,-0.41667 -0.41667,-0.41667 -0.45833,0 -1.33333,0.875 -0.85417,0.85417 -3.33334,3.60417 -0.6875,0.77083 -1.5625,2.02083 -0.85417,1.22917 -1.22917,1.64584 -0.375,0.41666 -0.75,0.41666 -0.75,0 -1.39583,-1.33333 -0.64583,-1.33333 -0.64583,-3.10417 0,-1.29167 0.41666,-2.22917 0.4375,-0.9375 1.33334,-2.33333 1.39583,-2.02084 2.27083,-2.875 0.89584,-0.875 1.875,-0.875 0.60417,0 1.02084,0.25 0.41666,0.22916 0.41666,0.64583 0,0.4375 -0.77083,1.4375 -0.75,1 -1.91667,2.0625 -0.625,0.60417 -1.1875,1.5 -0.5625,0.875 -0.5625,1.27084 0,0.5625 0.4375,0.5625 0.35417,0 1.79167,-1.45834 1.4375,-1.45833 3.14584,-3.16667 1.72916,-1.72916 3.1875,-2.85416 1.47917,-1.14584 2.5,-1.14584 0.625,0 1.02083,0.47917 0.41667,0.45833 0.41667,1.14583 0,0.45834 -0.625,1.66667 -0.625,1.1875 -1.83333,2.95834 -1.18751,1.75 -3.08334,4.25 z m 16.45835,-6.58334 q 3.16667,-2.875 6.14584,-4.27084 2.97916,-1.39583 4.60417,-1.39583 0.4375,0 0.8125,0.375 0.375,0.35417 0.58333,0.83333 0.22917,0.47917 0.22917,0.70834 0,0.375 -0.29167,0.5625 -0.29167,0.16667 -1.02083,0.41667 0.14583,0.33333 0.375,0.85416 0.22916,0.52084 0.35416,0.85417 0.125,0.3125 0.125,0.5625 0,0.5 -1.02083,1.875 -1,1.35417 -1.41667,2 -0.39583,0.64584 -0.39583,1.58334 0,1.54167 1.41667,1.54167 1.45833,0 4.5625,-2.72917 v 1.27083 q -5.27084,5.85417 -7.54167,5.85417 -0.8125,0 -1.16667,-0.54166 -0.33333,-0.52084 -0.33333,-1.56251 0,-1.64583 1.1875,-4.77083 -3.04167,3.375 -4.52084,4.8125 -1.47917,1.41667 -2.4375,1.41667 -0.45834,0 -1.14584,-0.79167 -0.6875,-0.79167 -1.22916,-2.04167 -0.52084,-1.27083 -0.52084,-2.625 0,-0.97917 0.1875,-1.625 0.1875,-0.66667 0.72917,-1.35417 0.54167,-0.6875 1.72917,-1.8125 z m 9.97917,-2.29167 q -5.41667,2.47917 -7.72917,4.20834 -2.29167,1.72917 -2.29167,3.5625 0,0.66667 0.22917,1.10417 0.22916,0.41667 0.625,0.41667 0.22917,0 0.8125,-0.29167 2.1875,-1.29167 4,-3.35417 1.8125,-2.08334 4.35417,-5.64584 z m 18.93752,2.25 q -3.66667,4.08334 -3.66667,5.68751 0,0.89583 0.72917,0.89583 0.60416,0 1.5625,-0.625 0.97916,-0.64583 3.04167,-2.27083 v 1.4375 q -2.95834,2.91667 -4.54167,4.20833 -1.58334,1.29167 -2.58334,1.29167 -1.70833,0 -1.70833,-2.25 0,-0.66667 0.20833,-1.3125 0.20833,-0.64583 0.5625,-1.33334 0.375,-0.70833 1.125,-2 0.75,-1.3125 1.72917,-2.95833 -1.1875,0.60417 -2.97917,2.39583 -1.16667,1.125 -1.97917,2.14584 -0.8125,1 -1.75,2.25 -0.91667,1.22917 -1.35417,1.66667 -0.41666,0.41666 -0.85416,0.41666 -0.66667,0 -1.22917,-1.39583 -0.5625,-1.39583 -0.5625,-3.25 0,-1.14584 0.25,-1.79167 0.27083,-0.64583 1.04167,-1.83333 1.4375,-2.20834 2.47916,-3.22917 1.04167,-1.04167 2.00001,-1.04167 0.66666,0 1.0625,0.22917 0.41666,0.22916 0.41666,0.70833 0,0.20833 -0.125,0.4375 -0.125,0.22917 -0.29166,0.41667 -0.14584,0.1875 -0.64584,0.72916 -3.29167,3.64584 -3.29167,4.72917 0,0.60417 0.39584,0.60417 0.25,0 0.95833,-0.79167 0.72917,-0.8125 1.85417,-2.10416 1.14583,-1.31251 2.6875,-2.72917 1.5625,-1.41667 3.54167,-2.72917 1.10417,-0.77084 1.83334,-0.77084 0.33333,0 0.64583,0.91667 0.33333,0.91667 0.33333,1.85417 0,0.45833 -0.89583,1.39583 z m 10.08334,-5.54167 q -0.52084,0 -1,-0.39583 -0.45834,-0.39583 -0.45834,-1 0,-0.91667 0.875,-2.04167 0.875,-1.125 1.81251,-1.125 0.625,0 1.04166,0.39583 0.41667,0.375 0.41667,1.10417 0,0.89583 -0.85417,1.97917 -0.85416,1.08333 -1.83333,1.08333 z m 1.41667,9.31251 v 1.52083 q -2.02084,2.60417 -3.77084,3.93751 -1.75,1.3125 -2.97917,1.3125 -1.70833,0 -2.54167,-1.79167 -0.83333,-1.79167 -0.83333,-3.91667 0,-0.8125 0.16666,-1.54167 0.16667,-0.75 0.39584,-1.22916 0.22917,-0.47917 0.85417,-1.50001 2.95833,-4.60417 5.41667,-4.60417 1.27083,0 1.27083,0.97917 0,0.66667 -0.83333,2.08334 -0.8125,1.41666 -1.45834,2.02083 -1.8125,1.75 -2.375,2.4375 -0.54167,0.6875 -0.54167,1.5625 0,0.75 0.5625,1.25001 0.5625,0.5 1.45834,0.5 0.97917,0 2.14583,-0.70834 1.1875,-0.72917 3.06251,-2.3125 z m 7.125,-10.81251 h 0.89584 q 1.10417,-1.97917 2,-2.79167 0.89583,-0.83333 2.04167,-0.83333 1.14583,0 1.14583,0.52083 0,0.25 -0.89583,1.35417 -0.89584,1.10417 -1.35417,1.85417 0.70833,0.0833 1.25,0.14583 0.5625,0.0625 0.875,0.10417 -1.1875,2.20833 -2.97917,4.52084 -0.58333,-0.0417 -0.97916,-0.0625 -0.39584,-0.0417 -0.81251,-0.0625 -0.39583,-0.0417 -0.97916,-0.0833 -1.125,1.8125 -1.89584,3.25 -0.75,1.41667 -1.16666,2.60417 -0.39584,1.1875 -0.39584,2.25 0,1.43751 1.14584,1.43751 0.79166,0 2.0625,-0.83334 1.29166,-0.85417 3.4375,-2.60417 v 1.39584 q -5.625,6.10417 -8.31251,6.10417 -0.9375,0 -1.52083,-0.72917 -0.5625,-0.72917 -0.5625,-1.875 0,-0.77083 0.3125,-1.83333 0.33333,-1.06251 1.16667,-3.20834 -0.29167,0.25 -0.5625,0.5 -0.25,0.22917 -0.47917,0.4375 -0.20833,0.1875 -0.45833,0.41667 -0.25,0.20833 -0.50001,0.4375 v -1.4375 q 2.18751,-1.83334 5.29168,-6.43751 -0.3125,-0.0208 -0.58334,-0.0208 -0.27083,-0.0208 -0.64583,-0.0208 -1.22917,0 -1.83334,0.16666 -0.25,0.0625 -0.47916,0.14584 -0.20834,0.0625 -0.29167,0.0625 -0.0833,0 -0.0833,-0.125 0,-0.6875 0.85416,-2.06251 0.6875,-1.16666 1.29167,-1.72916 0.625,-0.5625 1.5,-0.75 0.89584,-0.20834 2.5,-0.20834 z m 12.95835,11.62501 -3.70833,3.14584 q -2.64584,2.3125 -3.54167,2.3125 -0.8125,0 -1.70834,-1.85417 -0.89583,-1.875 -0.89583,-3.27084 0,-1.1875 0.35416,-2 0.375,-0.83333 1.27084,-2.14583 1.27083,-1.77084 2.4375,-3 1.16667,-1.22917 2.0625,-1.89584 0.89584,-0.6875 1.25,-0.6875 0.5625,0 1.08334,0.58333 0.54166,0.58334 0.54166,1.20834 0,0.39583 -0.58333,1.27083 -0.5625,0.875 -1.8125,2.22917 -1.22917,1.33334 -3.4375,3.20834 l -0.39584,1.14583 q -0.16666,0.33333 -0.16666,0.58333 0,0.56251 0.5625,0.56251 0.58333,0 2.72917,-1.47917 2.16666,-1.47917 4.6875,-3.97917 0.97917,-0.97917 1.625,-1.72917 0.64583,-0.75 1.16667,-1.39583 0.52083,-0.66667 0.85416,-1.00001 0.35417,-0.33333 0.62501,-0.35416 0.52083,-0.0625 0.8125,0.4375 0.29166,0.5 0.29166,1.47917 0,0.5625 -0.5,1.41666 -0.5,0.83334 -1.875,2.87501 -1.375,2.02083 -2.75,4.20833 -1.35417,2.16667 -2.77084,4.89584 0.0625,-0.0625 1.27084,-1.25 1.22917,-1.1875 2.58333,-2.47917 1.35417,-1.29167 2.22917,-2.0625 0.875,-0.79167 2.1875,-1.83334 v 1.39584 q -2.8125,3.02083 -5.10417,5.72917 -2.27083,2.70833 -3.52083,4.33334 -1.22917,1.625 -1.4375,1.89583 -0.5625,0.72917 -1.02084,1.35417 -0.4375,0.64583 -0.75,0.97917 -0.29167,0.35416 -0.47917,0.35416 -0.4375,0 -0.79166,-0.875 -0.33334,-0.85417 -0.33334,-1.52083 0,-0.60417 0.22917,-1.0625 1.5,-3.37501 6.72917,-11.72918 z"
       id="text1"
       transform="matrix(0.26458333,0,0,0.26458333,39.481156,18.771715)"
       aria-label=" Humanity " />
  </g>
</svg>
