<svg xmlns="http://www.w3.org/2000/svg" width="1600" height="1600" viewBox="0 0 1200 1200"><path fill="#ec7d00" d="M1096.7 797.06c-24-24-52.5-41.625-83.438-52.688 33.562-23.812 55.5-62.812 55.5-107.06 0-72.375-58.875-131.26-131.26-131.26-72.383 0-131.26 58.875-131.26 131.26 0 44.062 21.938 83.25 55.5 107.06-63 22.688-114 73.125-136.5 137.44-15.375-10.312-32.062-18.562-49.688-24.938 33.562-23.812 55.688-62.812 55.688-107.06 0-72.375-58.875-131.26-131.26-131.26-72.383 0-131.26 58.875-131.26 131.26 0 44.25 22.125 83.25 55.688 107.06-17.625 6.375-34.312 14.625-49.5 24.75-11.062-31.688-29.062-60.562-53.25-84.75-24-24-52.5-41.625-83.438-52.688 33.562-23.812 55.5-62.812 55.5-107.06 0-72.375-58.875-131.26-131.26-131.26-72.383 0-131.26 58.875-131.26 131.26 0 44.25 22.125 83.25 55.688 107.06-87 31.125-149.44 114.19-149.44 211.69v18.75c0 30.938 25.312 56.25 56.25 56.25h284.63c-2.062 12.188-3.375 24.75-3.375 37.5v18.75c0 30.938 25.312 56.25 56.25 56.25h337.5c30.938 0 56.25-25.312 56.25-56.25v-18.75c0-12.75-1.312-25.312-3.375-37.5h284.63c30.938 0 56.25-25.312 56.25-56.25v-18.75c0-60.188-23.438-116.62-65.812-159.19zM843.76 637.5c0-51.75 42-93.75 93.75-93.75s93.75 42 93.75 93.75-42 93.75-93.75 93.75-93.75-42-93.75-93.75M506.26 750c0-51.75 42-93.75 93.75-93.75s93.75 42 93.75 93.75-42 93.75-93.75 93.75-93.75-42-93.75-93.75m-337.5-112.5c0-51.75 42-93.75 93.75-93.75s93.75 42 93.75 93.75-42 93.75-93.75 93.75-93.75-42-93.75-93.75m-75 356.26c-10.312 0-18.75-8.437-18.75-18.75v-18.75c0-103.31 84.188-187.5 187.5-187.5 50.062 0 97.312 19.5 132.56 54.938 23.438 23.438 39.75 52.5 48 84.188-24.375 23.812-43.312 53.25-54.938 86.062H93.762zm693.74 93.75c0 10.312-8.437 18.75-18.75 18.75h-337.5c-10.312 0-18.75-8.437-18.75-18.75v-18.75c0-103.31 84.188-187.5 187.5-187.5s187.5 84.188 187.5 187.5zm337.5-112.5c0 10.312-8.437 18.75-18.75 18.75H811.88c-11.625-33-30.75-62.438-55.312-86.25 21.562-81 96-138.74 180.94-138.74 50.062 0 97.312 19.5 132.56 54.938s54.938 82.5 54.938 132.56z"/><path fill="#ec7d00" d="M131.26 431.26H349.7l88.688 70.875c3.375 2.625 7.5 4.125 11.625 4.125 2.813 0 5.625-.562 8.063-1.875 6.562-3.187 10.687-9.75 10.687-16.875v-56.25h37.5c30.938 0 56.25-25.312 56.25-56.25v-262.5c0-30.938-25.312-56.25-56.25-56.25h-375c-30.937 0-56.25 25.312-56.25 56.25v262.5c0 30.938 25.313 56.25 56.25 56.25zm-18.75-318.74c0-10.312 8.437-18.75 18.75-18.75h375c10.312 0 18.75 8.437 18.75 18.75v262.5c0 10.312-8.437 18.75-18.75 18.75h-56.25c-10.312 0-18.75 8.438-18.75 18.75v36l-63.375-50.625c-3.375-2.625-7.5-4.125-11.625-4.125h-225c-10.312 0-18.75-8.437-18.75-18.75zM693.74 431.26h37.5v56.25c0 7.125 4.125 13.688 10.688 16.875 2.625 1.313 5.438 1.875 8.063 1.875 4.125 0 8.25-1.312 11.625-4.125l88.688-70.875h218.44c30.938 0 56.25-25.312 56.25-56.25v-262.5c0-30.938-25.312-56.25-56.25-56.25h-375c-30.938 0-56.25 25.312-56.25 56.25v262.5c0 30.938 25.312 56.25 56.25 56.25zm-18.75-318.74c0-10.312 8.438-18.75 18.75-18.75h375c10.312 0 18.75 8.437 18.75 18.75v262.5c0 10.312-8.437 18.75-18.75 18.75h-225c-4.312 0-8.437 1.5-11.625 4.125L768.74 448.52v-36c0-10.312-8.437-18.75-18.75-18.75h-56.25c-10.312 0-18.75-8.437-18.75-18.75z"/><path fill="#ec7d00" d="m812.44 274.5-5.625 39c-1.5 11.062 3 21.938 12 28.312 4.875 3.563 10.688 5.25 16.5 5.25 4.5 0 9-1.125 13.125-3.187l32.812-17.062 32.812 17.062c9.563 4.875 20.812 4.125 29.625-2.063 9-6.375 13.688-17.25 12-28.312l-5.625-39 26.25-27.938c7.5-7.875 9.938-19.312 6.563-29.625-3.375-10.125-12-17.625-22.312-19.5l-36.375-6.375-17.25-34.5c-4.875-9.937-14.812-15.938-25.688-15.938s-20.812 6.188-25.688 16.125l-17.25 34.5-36.375 6.375c-10.5 1.875-18.938 9.188-22.312 19.5s-.938 21.75 6.562 29.625l26.25 27.938zm36.75-47.062c9-1.5 16.688-7.5 20.812-15.562l11.25-22.5 11.062 22.5c4.125 8.25 11.812 14.062 20.812 15.75l25.5 4.5-18.75 19.688c-6.187 6.562-9 15.562-7.687 24.562l3.75 26.438L894 291.376c-4.125-2.062-8.625-3.187-13.125-3.187s-9 1.124-13.125 3.187L846 302.814l3.75-26.438c1.312-8.812-1.5-18-7.688-24.562l-18.562-19.688 25.5-4.5zM308.63 343.87c3 1.875 6.563 3 10.125 3s6.938-.937 10.125-3c105.94-67.125 105.75-128.44 100.69-151.69-5.812-27.188-26.625-47.25-52.875-51-21.188-3-41.812 4.875-57.938 21.375-16.125-16.688-36.562-24.375-57.938-21.375-26.25 3.75-47.062 23.812-52.875 51-5.062 23.25-5.25 84.75 100.69 151.69zm-63.938-143.81c2.625-11.812 10.688-20.25 21.375-21.75 1.125 0 2.25-.187 3.375-.187 12.188 0 24.188 9.187 32.812 25.125 6.563 12.188 26.438 12.188 33 0 9.375-17.438 22.875-26.812 36.188-24.938 10.688 1.5 18.938 9.75 21.375 21.75 5.063 23.812-12 63.562-74.062 105.56-62.062-42.188-79.312-81.75-74.062-105.56z"/></svg>