<svg xmlns="http://www.w3.org/2000/svg" width="1600" height="1600" viewBox="0 0 1200 1200"><path fill="#ec7d00" d="M600 82.758c-137.18 0-268.74 54.496-365.75 151.5-97 97.004-151.5 228.57-151.5 365.75s54.496 268.74 151.5 365.75c97.004 97 228.57 151.5 365.75 151.5s268.74-54.496 365.75-151.5c97-97.004 151.5-228.57 151.5-365.75-.156-137.13-54.699-268.61-151.67-365.57S737.14 82.928 600.01 82.768zm0 951.72v.004a434.5 434.5 0 0 1-307.23-127.26 434.49 434.49 0 0 1 0-614.46 434.49 434.49 0 0 1 614.46 0 434.5 434.5 0 0 1 127.26 307.23c-.133 115.19-45.953 225.62-127.41 307.08s-191.89 127.27-307.08 127.41zm0-620.69v.004a82.758 82.758 0 0 0 82.758-82.758A82.756 82.756 0 0 0 600 248.276a82.756 82.756 0 0 0-82.758 82.758A82.758 82.758 0 0 0 600 413.792zm221.64.426-216.53 31.504a35.7 35.7 0 0 1-10.234 0l-216.51-31.504v.004c-14.613-2.086-29.227 3.765-38.359 15.359s-11.402 27.176-5.953 40.89a41.39 41.39 0 0 0 32.39 25.66l133.27 19.392a10.18 10.18 0 0 1 8.716 10.074v159.67l-3.54 16.324-85.472 187.9a41.39 41.39 0 0 0-.188 41.379 41.38 41.38 0 0 0 71.672.325l99.082-206.17a11.47 11.47 0 0 1 10.352-6.5c4.41.007 8.43 2.547 10.332 6.527l98.387 206.14a41.39 41.39 0 0 0 35.918 20.434 41.395 41.395 0 0 0 35.605-62.136l-86.832-190.89-2.199-10.145v-162.87c0-5.055 3.711-9.344 8.715-10.074l133.25-19.391a41.39 41.39 0 0 0 32.395-25.641 41.387 41.387 0 0 0-44.278-56.27z"/></svg>