<svg xmlns="http://www.w3.org/2000/svg" width="1600" height="1600" viewBox="0 0 1200 1200"><path fill="#ec7d00" d="M676.8 579.6c10.801-10.801 9.602-28.801-1.2-38.398-10.8-10.801-28.8-9.602-38.397 1.2l-52.801 56.397L562.8 576c-10.801-10.802-27.602-12-38.398-1.2-10.801 10.801-12 27.602-1.2 38.398l42 44.398c4.801 6 12 8.398 20.399 8.398 7.199 0 14.398-3.601 20.398-8.398z"/><path fill="#ec7d00" d="M535.2 884.4c0 12 9.602 20.398 20.398 20.398h90c12 0 20.398-9.602 20.398-20.398v-46.801c19.199-6 38.398-13.199 55.199-22.801l33.602 33.602c8.398 8.398 21.602 8.398 28.801 0l63.602-63.602c8.398-8.398 8.398-21.602 0-28.801l-33.602-33.602c9.602-16.801 18-36 22.801-55.199H883.2c12 0 20.398-9.602 20.398-20.398v-90c0-12-9.602-20.398-20.398-20.398h-46.801c-6-19.199-13.199-38.398-22.801-55.199l33.602-33.602c8.398-8.398 8.398-21.602 0-28.801l-63.602-63.602c-8.398-8.398-21.602-8.398-28.801 0l-33.602 33.602c-16.801-9.602-36-18-55.199-22.801v-46.801c0-12-9.602-20.398-20.398-20.398h-90c-12 0-20.398 9.602-20.398 20.398v46.801c-19.199 6-38.398 13.199-55.199 22.801l-33.602-33.602c-8.398-8.398-21.602-8.398-28.801 0l-63.602 63.602c-8.398 8.398-8.398 21.602 0 28.801l33.602 33.602c-9.602 16.801-18 36-22.801 55.199h-46.801c-12 0-20.398 9.602-20.398 20.398v90c0 12 9.602 20.398 20.398 20.398h46.801c6 19.199 13.199 38.398 22.801 55.199l-33.602 33.602c-8.398 8.398-8.398 21.602 0 28.801l63.602 63.602c8.398 8.398 21.602 8.398 28.801 0l33.602-33.602c16.801 9.602 36 18 55.199 22.801zm-84-284.4c0-82.801 67.199-148.8 148.8-148.8 82.801 0 148.8 67.199 148.8 148.8s-66 148.8-148.8 148.8c-81.602 0-148.8-66-148.8-148.8"/><path fill="#ec7d00" d="M162 600c0-241.2 196.8-438 438-438h1.2l-21.603 21.602c-12 12-12 30 0 42 6 6 13.2 8.398 21.602 8.398 7.2 0 15.602-2.398 21.602-8.398l73.2-73.199c6-6 8.398-13.199 8.398-21.602 0-8.398-3.602-15.602-8.399-21.602L622.801 36c-12-12-30-12-42 0s-12 30 0 42l21.602 21.602h-1.199c-274.8 3.598-498 226.8-498 500.4 0 139.2 55.199 267.6 156 362.4 6 4.8 13.199 8.398 20.398 8.398 8.398 0 15.602-3.601 21.602-9.601 10.801-12 10.801-31.2-1.2-42-88.8-83.996-138-196.8-138-319.2zM1096.8 600c0-139.2-55.199-267.6-156-362.4-12-10.801-31.199-10.801-42 1.2-10.801 13.198-10.801 31.198 1.2 43.198 88.8 82.801 138 196.8 138 318 0 241.2-196.8 438-438 438h-1.2l21.602-21.602c12-12 12-30 0-42s-30-12-42 0l-73.199 73.2c-6 6-8.398 13.198-8.398 21.601 0 8.399 3.601 15.602 8.398 21.602l73.199 73.2c6 6 13.199 8.398 21.602 8.398 7.2 0 15.602-2.399 21.602-8.399 12-12 12-30 0-42l-21.602-21.602h1.2c272.4-3.597 495.6-226.8 495.6-500.4z"/></svg>